<svg xmlns="http://www.w3.org/2000/svg" width="100" height="100" viewBox="0 0 100 100"><path d="M11.111 11.111h77.778v77.778H11.111z" /><rect width="17.5" height="17.5" x="12.407" y="12.407" rx="1" ry="1" fill="#ff0" /><rect width="17.5" height="17.5" x="12.407" y="18.241" rx="1" ry="1" fill="#ff0" /><rect width="17.5" height="17.5" x="18.241" y="12.407" rx="1" ry="1" fill="#ff0" /><rect width="17.5" height="17.5" x="18.241" y="18.241" rx="1" ry="1" fill="#ff0" /><rect width="17.5" height="17.5" x="12.407" y="38.333" rx="1" ry="1" fill="#ff0" /><rect width="17.5" height="17.5" x="12.407" y="44.167" rx="1" ry="1" fill="#ff0" /><rect width="17.5" height="17.5" x="18.241" y="38.333" rx="5.833" ry="5.833" fill="#ff0" /><rect width="17.5" height="17.5" x="18.241" y="44.167" rx="5.833" ry="5.833" fill="#ff0" /><rect width="17.5" height="17.5" x="12.407" y="64.259" rx="1" ry="1" fill="#ff0" /><rect width="17.5" height="17.5" x="12.407" y="70.093" rx="1" ry="1" fill="#ff0" /><rect width="17.5" height="17.5" x="18.241" y="64.259" rx="5.833" ry="5.833" fill="#ff0" /><rect width="17.5" height="17.5" x="18.241" y="70.093" rx="1" ry="1" fill="#ff0" /><rect width="17.5" height="17.5" x="38.333" y="12.407" rx="1" ry="1" fill="#ff0" /><rect width="17.5" height="17.5" x="38.333" y="18.241" rx="5.833" ry="5.833" fill="#ff0" /><rect width="17.5" height="17.5" x="44.167" y="12.407" rx="1" ry="1" fill="#ff0" /><rect width="17.5" height="17.5" x="44.167" y="18.241" rx="5.833" ry="5.833" fill="#ff0" /><rect width="17.5" height="17.5" x="38.333" y="38.333" rx="5.833" ry="5.833" fill="#ff0" /><rect width="17.5" height="17.5" x="38.333" y="44.167" rx="5.833" ry="5.833" fill="#ff0" /><rect width="17.5" height="17.5" x="44.167" y="38.333" rx="5.833" ry="5.833" fill="#ff0" /><rect width="17.5" height="17.5" x="44.167" y="44.167" rx="5.833" ry="5.833" fill="#ff0" /><rect width="17.5" height="17.5" x="38.333" y="64.259" rx="5.833" ry="5.833" fill="#ff0" /><rect width="17.5" height="17.5" x="38.333" y="70.093" rx="1" ry="1" fill="#ff0" /><rect width="17.5" height="17.5" x="44.167" y="64.259" rx="5.833" ry="5.833" fill="#ff0" /><rect width="17.5" height="17.5" x="44.167" y="70.093" rx="1" ry="1" fill="#ff0" /><rect width="17.5" height="17.5" x="64.259" y="12.407" rx="1" ry="1" fill="#ff0" /><rect width="17.5" height="17.5" x="64.259" y="18.241" rx="1" ry="1" fill="#ff0" /><rect width="17.5" height="17.5" x="70.093" y="12.407" rx="1" ry="1" fill="#ff0" /><rect width="17.5" height="17.5" x="70.093" y="18.241" rx="1" ry="1" fill="#ff0" /><rect width="17.5" height="17.5" x="64.259" y="38.333" rx="5.833" ry="5.833" fill="#ff0" /><rect width="17.5" height="17.5" x="64.259" y="44.167" rx="5.833" ry="5.833" fill="#ff0" /><rect width="17.5" height="17.5" x="70.093" y="38.333" rx="1" ry="1" fill="#ff0" /><rect width="17.5" height="17.5" x="70.093" y="44.167" rx="1" ry="1" fill="#ff0" /><rect width="17.5" height="17.5" x="64.259" y="64.259" rx="1" ry="1" fill="#ff0" /><rect width="17.5" height="17.5" x="64.259" y="70.093" rx="1" ry="1" fill="#ff0" /><rect width="17.5" height="17.5" x="70.093" y="64.259" rx="1" ry="1" fill="#ff0" /><rect width="17.5" height="17.5" x="70.093" y="70.093" rx="1" ry="1" fill="#ff0" /><path d="M11.111 0h77.778v11.111H11.111zM11.111 88.889h77.778V100H11.111zM0 11.111h11.111v77.778H0z" /><path d="M88.889 11.111H100v77.778H88.889z" /><rect width="23.333" height="8.519" x="12.407" y="1.296" rx="1" ry="1" fill="#2040d0" /><rect width="23.333" height="8.519" x="12.407" y="90.185" rx="1" ry="1" fill="#2040d0" /><rect width="8.519" height="23.333" x="1.296" y="12.407" rx="1" ry="1" fill="#d00000" /><rect width="8.519" height="23.333" x="90.185" y="12.407" rx="1" ry="1" fill="#d00000" /><rect width="23.333" height="8.519" x="38.333" y="1.296" rx="1" ry="1" fill="#2040d0" /><rect width="23.333" height="8.519" x="38.333" y="90.185" rx="1" ry="1" fill="#1a0" /><rect width="8.519" height="23.333" x="1.296" y="38.333" rx="1" ry="1" fill="#e80" /><rect width="8.519" height="23.333" x="90.185" y="38.333" rx="1" ry="1" fill="#d00000" /><rect width="23.333" height="8.519" x="64.259" y="1.296" rx="1" ry="1" fill="#1a0" /><rect width="23.333" height="8.519" x="64.259" y="90.185" rx="1" ry="1" fill="#1a0" /><rect width="8.519" height="23.333" x="1.296" y="64.259" rx="1" ry="1" fill="#e80" /><rect width="8.519" height="23.333" x="90.185" y="64.259" rx="1" ry="1" fill="#e80" /><path d = "M 19.5 80.5 l 2.652 -7.955 l 1.591 1.591 l 51.265 -51.265 l -1.591 -1.591 l 7.955 -2.652 l -2.652 7.955 l -1.591 -1.591 l -51.265 51.265 l 1.591 1.591 z" /><path d = "M 19.5 50.0 l 7.5 -3.75 l 0.0 2.25 l 46.5 0.0 l 0.0 -2.25 l 7.5 3.75 l -7.5 3.75 l 0.0 -2.25 l -46.5 0.0 l 0.0 2.25 z" /></svg>