<svg xmlns="http://www.w3.org/2000/svg" width="100" height="100"><path d="M45.196 5.7l48.688 10.09-31.738 21.99L6.9 21.58z"/><path d="M6.9 21.58l55.246 16.2-1.641 58.59L13.15 74.02z"/><path d="M62.146 37.78l31.738-21.99-5.446 49.94-27.933 30.64z"/><path fill="#888" d="M45.478 5.986l12.547 2.609-8.93 4.21L36.166 9.87zM60.344 9.077l13.783 2.866-8.352 4.648-14.285-3.242zM76.68 12.474l15.21 3.163-7.594 5.157-15.867-3.601zM34.407 10.605l12.996 2.997-10.336 4.873-13.373-3.4zM49.812 14.158l14.376 3.316-9.741 5.421-14.893-3.787z"/><path fill="#1a0" d="M66.86 18.09l15.987 3.688-8.935 6.067-16.687-4.243z"/><path fill="#888" d="M21.66 15.923l13.438 3.48-12.103 5.706-13.793-3.988zM37.6 20.051l14.984 3.88-11.51 6.406-15.502-4.483zM55.38 24.656l16.815 4.355-10.664 7.241-17.55-5.075zM7.996 23.541l13.769 4.12 1.382 17.02-13.23-4.707zM24.337 28.43l15.48 4.63.59 17.762-14.794-5.264zM42.72 33.928l17.531 5.244-.424 18.559-16.654-5.925z"/><path fill="#1a0" d="M10.239 42.726l13.14 4.798 1.241 15.29-12.647-5.255zM25.826 48.418l14.68 5.361.526 15.855-14.061-5.843z"/><path fill="#888" d="M43.249 54.78l16.507 6.03-.376 16.449-15.727-6.536z"/><path fill="#1a0" d="M12.265 60.05l12.563 5.326 1.122 13.81-12.112-5.68zM27.162 66.366l13.958 5.917.473 14.24-13.397-6.283z"/><path fill="#fff" d="M43.72 73.385l15.598 6.612-.336 14.681-14.899-6.987z"/><path fill="#888" d="M63.44 38.902l10.52-7.442-1.045 17.545-10.063 8.421z"/><path fill="#e80" d="M75.655 30.262l8.815-6.236-1.426 16.503-8.502 7.115z"/><path fill="#888" d="M85.9 23.014l7.493-5.3-1.686 15.565-7.278 6.091zM62.755 60.5l9.986-8.57-.936 15.692-9.57 9.302z"/><path fill="#e80" d="M74.357 50.543l8.449-7.251-1.287 14.888-8.159 7.93zM84.182 42.11l7.242-6.215-1.532 14.147-7.038 6.841z"/><path fill="#1a0" d="M62.148 79.659l9.5-9.414-.84 14.117-9.125 9.96z"/><path fill="#e80" d="M73.194 68.714l8.11-8.035-1.167 13.499-7.84 8.558zM82.63 59.364l7.003-6.938-1.398 12.914-6.81 7.433z"/></svg>