<svg xmlns="http://www.w3.org/2000/svg" width="100" height="100" transform="rotate(90)" viewBox="0 0 75 75"><path fill="black" d="M 36 2.5 v 67 h 3 l 4.5 4.5 l 4.5 -4.5 h -3 v -67 z " /><path d="M8.333 8.333h58.333v58.333H8.333z" /><rect width="13.125" height="13.125" x="9.306" y="9.306" rx="1" ry="1" fill="#ff0" /><rect width="13.125" height="13.125" x="9.306" y="13.681" rx="1" ry="1" fill="#ff0" /><rect width="13.125" height="13.125" x="13.681" y="9.306" rx="1" ry="1" fill="#ff0" /><rect width="13.125" height="13.125" x="13.681" y="13.681" rx="1" ry="1" fill="#ff0" /><rect width="13.125" height="13.125" x="9.306" y="28.75" rx="1" ry="1" fill="#ff0" /><rect width="13.125" height="13.125" x="9.306" y="33.125" rx="1" ry="1" fill="#ff0" /><rect width="13.125" height="13.125" x="13.681" y="28.75" rx="4.375" ry="4.375" fill="#ff0" /><rect width="13.125" height="13.125" x="13.681" y="33.125" rx="4.375" ry="4.375" fill="#ff0" /><rect width="13.125" height="13.125" x="9.306" y="48.194" rx="1" ry="1" fill="#ff0" /><rect width="13.125" height="13.125" x="9.306" y="52.569" rx="1" ry="1" fill="#ff0" /><rect width="13.125" height="13.125" x="13.681" y="48.194" rx="4.375" ry="4.375" fill="#ff0" /><rect width="13.125" height="13.125" x="13.681" y="52.569" rx="1" ry="1" fill="#ff0" /><rect width="13.125" height="13.125" x="28.75" y="9.306" rx="1" ry="1" fill="#ff0" /><rect width="13.125" height="13.125" x="28.75" y="13.681" rx="4.375" ry="4.375" fill="#ff0" /><rect width="13.125" height="13.125" x="33.125" y="9.306" rx="1" ry="1" fill="#ff0" /><rect width="13.125" height="13.125" x="33.125" y="13.681" rx="4.375" ry="4.375" fill="#ff0" /><rect width="13.125" height="13.125" x="28.75" y="28.75" rx="4.375" ry="4.375" fill="#ff0" /><rect width="13.125" height="13.125" x="28.75" y="33.125" rx="4.375" ry="4.375" fill="#ff0" /><rect width="13.125" height="13.125" x="33.125" y="28.75" rx="4.375" ry="4.375" fill="#ff0" /><rect width="13.125" height="13.125" x="33.125" y="33.125" rx="4.375" ry="4.375" fill="#ff0" /><rect width="13.125" height="13.125" x="28.75" y="48.194" rx="4.375" ry="4.375" fill="#ff0" /><rect width="13.125" height="13.125" x="28.75" y="52.569" rx="1" ry="1" fill="#ff0" /><rect width="13.125" height="13.125" x="33.125" y="48.194" rx="4.375" ry="4.375" fill="#ff0" /><rect width="13.125" height="13.125" x="33.125" y="52.569" rx="1" ry="1" fill="#ff0" /><rect width="13.125" height="13.125" x="48.194" y="9.306" rx="1" ry="1" fill="#ff0" /><rect width="13.125" height="13.125" x="48.194" y="13.681" rx="1" ry="1" fill="#ff0" /><rect width="13.125" height="13.125" x="52.569" y="9.306" rx="1" ry="1" fill="#ff0" /><rect width="13.125" height="13.125" x="52.569" y="13.681" rx="1" ry="1" fill="#ff0" /><rect width="13.125" height="13.125" x="48.194" y="28.75" rx="4.375" ry="4.375" fill="#ff0" /><rect width="13.125" height="13.125" x="48.194" y="33.125" rx="4.375" ry="4.375" fill="#ff0" /><rect width="13.125" height="13.125" x="52.569" y="28.75" rx="1" ry="1" fill="#ff0" /><rect width="13.125" height="13.125" x="52.569" y="33.125" rx="1" ry="1" fill="#ff0" /><rect width="13.125" height="13.125" x="48.194" y="48.194" rx="1" ry="1" fill="#ff0" /><rect width="13.125" height="13.125" x="48.194" y="52.569" rx="1" ry="1" fill="#ff0" /><rect width="13.125" height="13.125" x="52.569" y="48.194" rx="1" ry="1" fill="#ff0" /><rect width="13.125" height="13.125" x="52.569" y="52.569" rx="1" ry="1" fill="#ff0" /><path d="M8.333 0h58.333v8.333H8.333zM8.333 66.667h58.333V75H8.333zM0 8.333h8.333v58.333H0zM66.667 8.333H75v58.333h-8.333z" /><rect width="17.5" height="6.389" x="9.306" y=".972" rx="1" ry="1" fill="#1a0" /><rect width="17.5" height="6.389" x="9.306" y="67.639" rx="1" ry="1" fill="#1a0" /><rect width="6.389" height="17.5" x=".972" y="9.306" rx="1" ry="1" fill="#e80" /><rect width="6.389" height="17.5" x="67.639" y="9.306" rx="1" ry="1" fill="#e80" /><rect width="17.5" height="6.389" x="28.75" y=".972" rx="1" ry="1" fill="#e80" /><rect width="17.5" height="6.389" x="28.75" y="67.639" rx="1" ry="1" fill="#d00000" /><rect width="6.389" height="17.5" x=".972" y="28.75" rx="1" ry="1" fill="#2040d0" /><rect width="6.389" height="17.5" x="67.639" y="28.75" rx="1" ry="1" fill="#1a0" /><rect width="17.5" height="6.389" x="48.194" y=".972" rx="1" ry="1" fill="#2040d0" /><rect width="17.5" height="6.389" x="48.194" y="67.639" rx="1" ry="1" fill="#2040d0" /><rect width="6.389" height="17.5" x=".972" y="48.194" rx="1" ry="1" fill="#d00000" /><rect width="6.389" height="17.5" x="67.639" y="48.194" rx="1" ry="1" fill="#d00000" /><path d = "M 14.5 18 l 5.625 -2.812 l 0.0 1.688 l 34.875 0.0 l 0.0 -1.688 l 5.625 2.812 l -5.625 2.812 l 0.0 -1.688 l -34.875 0.0 l 0.0 1.688 z" /><path d = "M 14.5 57 l 5.625 -2.812 l 0.0 1.688 l 34.875 0.0 l 0.0 -1.688 l 5.625 2.812 l -5.625 2.812 l 0.0 -1.688 l -34.875 0.0 l 0.0 1.688 z" /></svg>