<svg xmlns="http://www.w3.org/2000/svg" width="100" height="100" viewBox="0 0 50 50"><path d="M5.556 5.556h38.889v38.889H5.556z" /><rect width="8.75" height="8.75" x="6.204" y="6.204" rx="1" ry="1" fill="#ff0" /><rect width="8.75" height="8.75" x="6.204" y="9.12" rx="1" ry="1" fill="#ff0" /><rect width="8.75" height="8.75" x="9.12" y="6.204" rx="1" ry="1" fill="#ff0" /><rect width="8.75" height="8.75" x="9.12" y="9.12" rx="1" ry="1" fill="#ff0" /><rect width="8.75" height="8.75" x="6.204" y="19.167" rx="1" ry="1" fill="#ff0" /><rect width="8.75" height="8.75" x="6.204" y="22.083" rx="1" ry="1" fill="#ff0" /><rect width="8.75" height="8.75" x="9.12" y="19.167" rx="2.917" ry="2.917" fill="#ff0" /><rect width="8.75" height="8.75" x="9.12" y="22.083" rx="2.917" ry="2.917" fill="#ff0" /><rect width="8.75" height="8.75" x="6.204" y="32.13" rx="1" ry="1" fill="#ff0" /><rect width="8.75" height="8.75" x="6.204" y="35.046" rx="1" ry="1" fill="#ff0" /><rect width="8.75" height="8.75" x="9.12" y="32.13" rx="2.917" ry="2.917" fill="#ff0" /><rect width="8.75" height="8.75" x="9.12" y="35.046" rx="1" ry="1" fill="#ff0" /><rect width="8.75" height="8.75" x="19.167" y="6.204" rx="1" ry="1" fill="#ff0" /><rect width="8.75" height="8.75" x="19.167" y="9.12" rx="2.917" ry="2.917" fill="#ff0" /><rect width="8.75" height="8.75" x="22.083" y="6.204" rx="1" ry="1" fill="#ff0" /><rect width="8.75" height="8.75" x="22.083" y="9.12" rx="2.917" ry="2.917" fill="#ff0" /><rect width="8.75" height="8.75" x="19.167" y="19.167" rx="2.917" ry="2.917" fill="#ff0" /><rect width="8.75" height="8.75" x="19.167" y="22.083" rx="2.917" ry="2.917" fill="#ff0" /><rect width="8.75" height="8.75" x="22.083" y="19.167" rx="2.917" ry="2.917" fill="#ff0" /><rect width="8.75" height="8.75" x="22.083" y="22.083" rx="2.917" ry="2.917" fill="#ff0" /><rect width="8.75" height="8.75" x="19.167" y="32.13" rx="2.917" ry="2.917" fill="#ff0" /><rect width="8.75" height="8.75" x="19.167" y="35.046" rx="1" ry="1" fill="#ff0" /><rect width="8.75" height="8.75" x="22.083" y="32.13" rx="2.917" ry="2.917" fill="#ff0" /><rect width="8.75" height="8.75" x="22.083" y="35.046" rx="1" ry="1" fill="#ff0" /><rect width="8.75" height="8.75" x="32.13" y="6.204" rx="1" ry="1" fill="#ff0" /><rect width="8.75" height="8.75" x="32.13" y="9.12" rx="1" ry="1" fill="#ff0" /><rect width="8.75" height="8.75" x="35.046" y="6.204" rx="1" ry="1" fill="#ff0" /><rect width="8.75" height="8.75" x="35.046" y="9.12" rx="1" ry="1" fill="#ff0" /><rect width="8.75" height="8.75" x="32.13" y="19.167" rx="2.917" ry="2.917" fill="#ff0" /><rect width="8.75" height="8.75" x="32.13" y="22.083" rx="2.917" ry="2.917" fill="#ff0" /><rect width="8.75" height="8.75" x="35.046" y="19.167" rx="1" ry="1" fill="#ff0" /><rect width="8.75" height="8.75" x="35.046" y="22.083" rx="1" ry="1" fill="#ff0" /><rect width="8.75" height="8.75" x="32.13" y="32.13" rx="1" ry="1" fill="#ff0" /><rect width="8.75" height="8.75" x="32.13" y="35.046" rx="1" ry="1" fill="#ff0" /><rect width="8.75" height="8.75" x="35.046" y="32.13" rx="1" ry="1" fill="#ff0" /><rect width="8.75" height="8.75" x="35.046" y="35.046" rx="1" ry="1" fill="#ff0" /><path d="M5.556 0h38.889v5.556H5.556zM5.556 44.444h38.889V50H5.556zM0 5.556h5.556v38.889H0z" /><path d="M44.444 5.556H50v38.889h-5.556z" /><rect width="11.667" height="4.259" x="6.204" y=".648" rx="1" ry="1" fill="#2040d0" /><rect width="11.667" height="4.259" x="6.204" y="45.093" rx="1" ry="1" fill="#1a0" /><rect width="4.259" height="11.667" x=".648" y="6.204" rx="1" ry="1" fill="#d00000" /><rect width="4.259" height="11.667" x="45.093" y="6.204" rx="1" ry="1" fill="#e80" /><rect width="11.667" height="4.259" x="19.167" y=".648" rx="1" ry="1" fill="#1a0" /><rect width="11.667" height="4.259" x="19.167" y="45.093" rx="1" ry="1" fill="#2040d0" /><rect width="4.259" height="11.667" x=".648" y="19.167" rx="1" ry="1" fill="#e80" /><rect width="4.259" height="11.667" x="45.093" y="19.167" rx="1" ry="1" fill="#d00000" /><rect width="11.667" height="4.259" x="32.13" y=".648" rx="1" ry="1" fill="#2040d0" /><rect width="11.667" height="4.259" x="32.13" y="45.093" rx="1" ry="1" fill="#1a0" /><rect width="4.259" height="11.667" x=".648" y="32.13" rx="1" ry="1" fill="#d00000" /><rect width="4.259" height="11.667" x="45.093" y="32.13" rx="1" ry="1" fill="#e80" /><path d = "M 25.0 9.75 l 1.875 3.75 l -1.125 0.0 l 0.0 23.25 l 1.125 -0.0 l -1.875 3.75 l -1.875 -3.75 l 1.125 -0.0 l -0.0 -23.25 l -1.125 0.0 z" /><path d = "M 9.75 25.0 l 3.75 -1.875 l 0.0 1.125 l 23.25 0.0 l 0.0 -1.125 l 3.75 1.875 l -3.75 1.875 l 0.0 -1.125 l -23.25 0.0 l 0.0 1.125 z" /></svg>